<?xml version="1.0" encoding="utf-8"?>
<!-- Generator: Adobe Illustrator 24.0.0, SVG Export Plug-In . SVG Version: 6.00 Build 0)  -->
<svg version="1.1" id="图层_1" xmlns="http://www.w3.org/2000/svg" xmlns:xlink="http://www.w3.org/1999/xlink" x="0px" y="0px"
	 viewBox="0 0 471.37 603.53" style="enable-background:new 0 0 471.37 603.53;" xml:space="preserve">
<style type="text/css">
	.st0{fill:#2F2E41;}
	.st1{fill:#FFB8B8;}
	.st2{fill:#6C63FF;}
	.st3{fill:#3F3D56;}
	.st4{opacity:0.3;enable-background:new    ;}
</style>
<g id="Group_40" transform="translate(-360.229 -42.801)">
	<path id="Path_77" class="st0" d="M746.2,224.14c-10.29-17.54-30.65-18.35-30.65-18.35s-19.84-2.56-32.56,24.15
		c-11.86,24.89-28.23,48.93-2.64,54.75l4.62-14.51l2.86,15.59c3.64,0.26,7.3,0.33,10.95,0.19c27.41-0.89,53.51,0.26,52.67-9.66
		C750.35,263.11,756.1,241.01,746.2,224.14z"/>
	<path id="Path_78" class="st1" d="M648.63,317.77l-9,23l-45,42c0,0-27,20-15,26s23-22,23-22l48-29l10-33L648.63,317.77z"/>
	<path id="Path_79" class="st1" d="M663.63,572.77l9,23h13l-11-27L663.63,572.77z"/>
	<path id="Path_80" class="st1" d="M702.63,582.77l9,23h13l-11-27L702.63,582.77z"/>
	<path id="Path_81" class="st0" d="M701.63,586.77l17-4l-22-89l7.3-68.48l0.2-0.02c0,0,12.5-48.5,2.5-61.5s-60-8-60-8s-19,19-18,62
		s0,80,7,97s27,62,27,62l16-2l-17-74l-2.72-64.33c2.16,25.78,6.52,74.66,8.72,78.33C670.63,519.77,701.63,586.77,701.63,586.77z"/>
	<path id="Path_82" class="st1" d="M752.63,338.77l7,25l31,56c0,0,27,24,16,27s-28-22-28-22l-35-49l-9-36L752.63,338.77z"/>
	<ellipse id="Ellipse_23" class="st1" cx="716.63" cy="242.77" rx="25" ry="25"/>
	<path id="Path_83" class="st1" d="M703.63,255.77l-6,19l-10,22l37-15c0,0-2-16,0-20L703.63,255.77z"/>
	<path id="Path_84" class="st2" d="M746.63,295.77l-23-19l-26,11l1.02-16.23l-27.74,8.86l-4.28,1.37l-6,31c0,0-4,3-8,20
		c-2.31,9.99-5.66,19.71-10,29c0,0,43-17,64,6c0,0,3-2,2-5s9-18,9-18s0,3,4-3s7-7,7-7L746.63,295.77z"/>
	<path id="Path_85" class="st2" d="M672.63,284.77l-4.37-3.52c0,0-3.63-1.48-6.63,3.52s-18,36-18,36l18,9L672.63,284.77z"/>
	<path id="Path_86" class="st2" d="M732.63,294.77l14,1c0,0,8,4,8,10s2,38,2,38l-22,7l-9-28L732.63,294.77z"/>
	<path id="Path_87" class="st0" d="M669.74,592.27l-17,7c0,0-20,1-17,11s33,3,33,3s27,1,27-6s-4-15-8-15H669.74z"/>
	<path id="Path_88" class="st0" d="M707.74,601.27l-17,7c0,0-20,1-17,11s33,3,33,3s27,1,27-6s-4-15-8-15H707.74z"/>
	<path id="Path_89" class="st0" d="M741.66,222.45l-20.11-10.63l-27.77,4.35l-5.75,25.6l14.3-0.55l4-9.4v9.25l6.6-0.26l3.83-14.97
		l2.39,15.94l23.46-0.48L741.66,222.45z"/>
	<path id="Path_90" class="st3" d="M607.15,101.01c-56.99-48.09-142.18-40.88-190.27,16.11C368.79,174.11,376,259.3,432.99,307.39
		c53.31,44.98,132.11,41.96,181.81-6.98l165.62,139.75c5.25,4.43,13.1,3.77,17.53-1.49c4.43-5.25,3.77-13.1-1.48-17.53l0,0
		L630.85,281.39C670.72,224.17,660.45,145.99,607.15,101.01L607.15,101.01z M596.47,267.94c-36.03,42.7-99.85,48.11-142.55,12.08
		c-42.7-36.03-48.11-99.85-12.08-142.55s99.85-48.11,142.55-12.08c0,0,0,0,0,0C627.09,161.42,632.5,225.24,596.47,267.94z"/>
	<path id="Path_91" class="st4" d="M453.92,280.01c-40.24-33.96-47.7-93.1-17.17-135.99c-1.93,1.95-3.8,3.99-5.61,6.12
		c-36.03,42.7-30.62,106.52,12.08,142.55s106.52,30.62,142.55-12.08c1.8-2.13,3.5-4.32,5.09-6.56
		C553.72,311.38,494.16,313.97,453.92,280.01z"/>
</g>
</svg>
